Coordinates
version=1
nRows=14
nColumns=24
inDegrees=yes

Units are S.I. units (second, meters, Newtons, ...)
Angles are in degrees.

endheader
time	pelvis_tilt	pelvis_list	pelvis_rotation	pelvis_tx	pelvis_ty	pelvis_tz	hip_flexion_r	hip_adduction_r	hip_rotation_r	knee_angle_r	ankle_angle_r	subtalar_angle_r	mtp_angle_r	hip_flexion_l	hip_adduction_l	hip_rotation_l	knee_angle_l	ankle_angle_l	subtalar_angle_l	mtp_angle_l	lumbar_extension	lumbar_bending	lumbar_rotation
      1.74150000	      0.85115131	      7.12228937	     -1.81772554	      1.43914997	      1.01948843	      0.29093966	     14.37303972	     -7.37616388	      0.65472030	    -63.70807337	      5.44233064	    -14.62601469	      2.87882527	      4.33678970	     12.62886737	      2.13523822	     -7.95743263	     -0.73365198	    -19.66664512	      6.98089724	     -1.50449530	     -7.68885373	      5.10928123
      1.74566667	      0.82298937	      7.02267299	     -1.50597920	      1.44391511	      1.01999061	      0.29035497	     14.84047016	     -7.26586456	      0.43777101	    -63.23398134	      5.57840608	    -14.69224520	      2.81233346	      3.87691898	     12.56173672	      2.52653094	     -7.67373766	     -0.66128887	    -19.66117668	      6.92698034	     -1.51719872	     -7.57082474	      4.88642224
      1.74983333	      0.79049875	      6.92986904	     -1.19864330	      1.44862840	      1.02043686	      0.28979408	     15.31456176	     -7.16077696	      0.24060661	    -62.74861011	      5.72079669	    -14.75599801	      2.74724002	      3.42660501	     12.49495785	      2.91336556	     -7.38771753	     -0.58984238	    -19.64241784	      6.87740409	     -1.53831641	     -7.45641760	      4.65819318
      1.75400000	      0.76856061	      6.84018762	     -0.90746009	      1.45335799	      1.02086726	      0.28926079	     15.77309803	     -7.06484623	      0.04800656	    -62.23712356	      5.85733984	    -14.81103231	      2.67924498	      2.96911171	     12.42629777	      3.27844740	     -7.09733479	     -0.52336096	    -19.63515352	      6.82496673	     -1.55384109	     -7.35162792	      4.44888293
      1.75816667	      0.74920151	      6.76112114	     -0.61107300	      1.45801177	      1.02126284	      0.28873364	     16.22608770	     -6.98586658	     -0.14296893	    -61.71192587	      6.01188397	    -14.87023474	      2.58295385	      2.51491867	     12.36396986	      3.65043752	     -6.80787576	     -0.50396252	    -19.65357121	      6.75402967	     -1.58960527	     -7.26522360	      4.18610141
      1.76233333	      0.70514800	      6.67370585	     -0.32034416	      1.46274778	      1.02160481	      0.28821850	     16.69239385	     -6.90328958	     -0.33329088	    -61.15669967	      6.13484424	    -14.90174907	      2.55674787	      2.09814989	     12.28354422	      3.95809860	     -6.55399134	     -0.40185300	    -19.54121168	      6.73835513	     -1.58092605	     -7.15275333	      4.12111888
      1.76650000	      0.69383248	      6.58624281	     -0.03382080	      1.46739602	      1.02195989	      0.28772416	     17.11657976	     -6.82075310	     -0.51525424	    -60.57040141	      6.21665960	    -14.96424679	      2.47858598	      1.64043923	     12.20516170	      4.35244822	     -6.27596628	     -0.32212600	    -19.61276580	      6.68236355	     -1.62012129	     -7.05795490	      3.79804933
      1.77066667	      0.66359307	      6.51434178	      0.24641053	      1.47206298	      1.02225596	      0.28726893	     17.55911524	     -6.75737107	     -0.68600739	    -59.97371775	      6.36296624	    -14.97113285	      2.44513388	      1.21871909	     12.13023647	      4.65240208	     -6.02030778	     -0.25713959	    -19.52727554	      6.66009213	     -1.62596508	     -6.98683562	      3.70521762
      1.77483333	      0.64900979	      6.42971542	      0.51772090	      1.47675020	      1.02254782	      0.28680181	     17.97416523	     -6.68298112	     -0.84706385	    -59.34690784	      6.44095825	    -15.00728007	      2.36638491	      0.75489959	     12.04414906	      5.03012741	     -5.71960526	     -0.19334625	    -19.59897576	      6.60292195	     -1.65695231	     -6.88424222	      3.39395827
      1.77900000	      0.62414955	      6.35631952	      0.78615520	      1.48140190	      1.02279337	      0.28636531	     18.39170705	     -6.62504228	     -1.00609119	    -58.70002553	      6.54538721	    -15.00624463	      2.29186850	      0.33342595	     11.96354758	      5.36957934	     -5.47512513	     -0.12094872	    -19.60819402	      6.54672121	     -1.67712382	     -6.80227717	      3.21586589
      1.78316667	      0.59439754	      6.29201425	      1.04851167	      1.48606546	      1.02299097	      0.28597075	     18.81012544	     -6.57463519	     -1.14995974	    -58.03974488	      6.66465992	    -14.98689224	      2.25937608	     -0.08097632	     11.88245722	      5.64122548	     -5.22298875	     -0.06243207	    -19.52542912	      6.52394319	     -1.68158752	     -6.74167702	      3.12743495
      1.78733333	      0.58908373	      6.22405117	      1.29876089	      1.49068837	      1.02320911	      0.28558862	     19.19297374	     -6.51956677	     -1.28031304	    -57.34883195	      6.75162257	    -14.98031344	      2.17642596	     -0.54054832	     11.79706482	      5.99790656	     -4.92601010	     -0.02460963	    -19.59436900	      6.45889398	     -1.73722746	     -6.66800658	      2.84350231
      1.79150000	      0.55182681	      6.15469822	      1.55045627	      1.49536130	      1.02334800	      0.28522438	     19.59999159	     -6.46869022	     -1.41306022	    -56.63652950	      6.84502446	    -14.92881531	      2.14827993	     -0.93796458	     11.70300099	      6.26680634	     -4.69456894	      0.06828334	    -19.52123501	      6.43737798	     -1.72396909	     -6.59485263	      2.77508650
      1.79566667	      0.56460070	      6.10360690	      1.78982205	      1.49996483	      1.02351118	      0.28487265	     19.95192182	     -6.43735600	     -1.52977450	    -55.91817357	      6.92157402	    -14.87639782	      2.08727166	     -1.40516638	     11.62670868	      6.59685800	     -4.41908764	      0.13908321	    -19.57713107	      6.38742288	     -1.79032213	     -6.54005438	      2.52571821
